<svg width="171" height="186" viewBox="0 0 171 186" fill="none" xmlns="http://www.w3.org/2000/svg">
<path d="M28.1248 0.00183498H111.801C144.092 0.00183498 170.307 26.2183 170.307 58.5081V157.689C170.307 173.211 157.706 185.812 142.184 185.812H28.123C12.6014 185.812 0 173.211 0 157.689V28.123C0 12.6013 12.6014 0 28.123 0L28.1248 0.00183498Z" fill="white"/>
<path d="M35.7289 41.9361C42.4622 39.7271 49.5823 37.4594 56.7629 38.1744C60.3028 38.5263 63.5182 39.7894 66.5522 41.6079C69.5861 43.4264 72.378 45.3806 75.5733 46.8087C81.8446 49.6098 88.6934 50.8014 95.5202 51.1423C99.018 51.3165 102.53 51.2817 106.026 51.0874C109.634 50.8875 113.255 50.4732 116.749 49.5255C118.521 49.0452 120.228 48.3981 121.909 47.6648C123.59 46.9315 125.273 46.1634 127.064 45.7216C130.69 44.8252 134.496 45.1607 138.147 45.7088C139.057 45.8444 139.964 45.9966 140.87 46.1469C141.563 46.2624 141.86 45.2028 141.163 45.0855C137.511 44.4732 133.794 43.8536 130.08 44.1414C128.278 44.2807 126.512 44.6418 124.815 45.2633C123.073 45.9013 121.412 46.739 119.682 47.4081C116.217 48.75 112.536 49.4338 108.848 49.7784C105.159 50.1231 101.737 50.2001 98.1857 50.1323C91.2489 49.9984 84.2424 49.0855 77.7511 46.5374C74.488 45.256 71.5604 43.4503 68.609 41.5859C65.6576 39.7216 62.5228 38.0662 59.0086 37.3952C51.9361 36.0442 44.6987 37.9287 37.9764 40.0534C37.1276 40.321 36.2825 40.596 35.4374 40.8746C34.7683 41.0946 35.0543 42.156 35.7307 41.9361H35.7289Z" fill="black"/>
<path d="M19.8003 71.1388C23.2375 68.1305 26.9552 65.4541 30.9039 63.1589C32.8306 62.0388 34.8104 61.0067 36.8343 60.0718C37.9049 59.5769 38.9956 59.0361 40.1542 58.7758C41.3128 58.5154 42.442 58.7574 43.5053 59.333C45.4191 60.3706 47.1845 61.762 48.9315 63.0544C50.6694 64.3395 52.3871 65.6521 54.1414 66.9151C57.6813 69.4669 61.399 71.8171 65.5347 73.2763C69.96 74.8363 74.6842 75.3918 79.3551 75.4853C84.1471 75.5824 88.9574 75.258 93.7109 74.6695C103.333 73.4761 112.778 71.1058 121.946 67.9765C126.435 66.444 131.062 64.18 135.905 64.29C140.351 64.3908 144.294 66.7703 147.775 69.3313C148.659 69.982 149.524 70.6548 150.388 71.3313C150.938 71.7639 151.722 70.9903 151.165 70.554C147.772 67.894 144.239 65.1553 140.058 63.8739C135.377 62.4403 130.785 63.6575 126.325 65.2579C116.963 68.6181 107.456 71.4523 97.6137 73.016C92.7264 73.7932 87.7897 74.2644 82.8419 74.3762C78.0187 74.4862 73.1388 74.246 68.4532 73.0178C59.5127 70.6768 52.8875 64.1855 45.3861 59.2011C44.519 58.6254 43.6171 58.059 42.6088 57.7602C41.6006 57.4614 40.4585 57.5237 39.4117 57.8298C37.2522 58.4604 35.1606 59.608 33.1734 60.6456C29.1111 62.7684 25.2613 65.2854 21.6756 68.1397C20.7737 68.8583 19.8901 69.5989 19.023 70.3578C18.4895 70.8253 19.2705 71.6008 19.8003 71.1351V71.1388Z" fill="black"/>
<path d="M34.4805 126.71C42.1011 124.358 49.74 122.068 57.399 119.839C65.0196 117.621 72.6603 115.465 80.3157 113.372C82.1801 112.862 84.0408 112.32 85.9198 111.867C87.5495 111.474 89.2929 111.154 90.9647 111.46C94.028 112.021 95.6119 114.706 96.0024 117.601C96.3928 120.496 95.7457 123.454 94.7411 126.134C93.7366 128.815 92.1655 131.399 90.3543 133.678C86.5284 138.494 81.6302 142.356 76.6787 145.948C76.0701 146.389 75.4596 146.826 74.8473 147.262C74.3469 147.619 74.6402 148.404 75.2708 148.267C79.2672 147.398 83.2635 146.527 87.2617 145.658C89.2122 145.235 91.1719 144.84 93.1133 144.382C94.5542 144.041 96.0757 143.443 96.754 142.021C97.3443 140.782 97.1738 139.332 96.5982 138.122C95.9419 136.741 94.7155 135.805 93.3314 135.222C91.7934 134.574 90.1252 134.362 88.4808 134.164C86.4716 133.924 84.4551 133.746 82.4331 133.63C78.3927 133.401 74.3359 133.423 70.2974 133.698C67.0196 133.922 63.7327 134.265 60.5246 134.989C55.2469 136.179 49.729 138.351 46.0314 142.459C44.2514 144.439 42.9113 146.908 42.4732 149.552C41.9911 152.455 42.6712 155.788 45.4448 157.308C46.9774 158.148 48.7592 158.355 50.4586 158.624C52.4788 158.945 54.5008 159.246 56.5246 159.532C60.5466 160.102 64.5778 160.613 68.6108 161.099C72.6548 161.587 76.7007 162.065 80.7484 162.514C84.7961 162.963 88.7631 163.33 92.7906 163.345C99.7622 163.368 106.822 162.232 112.965 158.78C115.702 157.242 118.221 155.253 120.222 152.826C121.256 151.57 122.07 150.201 122.928 148.826C123.786 147.451 124.915 146.149 126.595 145.673C128.144 145.233 129.805 145.432 131.361 145.722C133.016 146.032 134.646 146.479 136.312 146.736C139.561 147.238 142.868 146.741 145.828 145.312C147.275 144.613 148.6 143.685 149.77 142.586C150.287 142.1 149.508 141.322 148.993 141.808C146.674 143.992 143.64 145.399 140.47 145.751C137.209 146.113 134.191 145.062 131.014 144.551C129.564 144.318 128.072 144.199 126.628 144.529C125.183 144.859 123.86 145.737 122.912 146.934C121.946 148.155 121.262 149.565 120.369 150.835C119.476 152.105 118.464 153.233 117.344 154.272C112.815 158.474 106.782 160.802 100.737 161.717C93.1114 162.87 85.3515 161.955 77.7493 161.075C69.9747 160.175 62.1983 159.275 54.4549 158.133C52.6034 157.86 50.7446 157.599 48.9022 157.262C47.333 156.974 45.6905 156.531 44.6327 155.246C42.816 153.037 43.2871 149.718 44.2697 147.262C46.2147 142.404 50.9315 139.354 55.6465 137.581C61.5201 135.37 67.8867 134.794 74.1141 134.615C77.9729 134.505 81.8373 134.622 85.6833 134.97C87.4469 135.13 89.2379 135.278 90.9739 135.649C92.4643 135.968 94.0665 136.521 95.0656 137.74C95.8631 138.712 96.3195 140.188 95.83 141.398C95.2196 142.908 93.3699 143.207 91.9639 143.511C88.1526 144.34 84.3396 145.17 80.5284 145.999C78.6787 146.402 76.8272 146.804 74.9775 147.207L75.401 148.212C80.5632 144.536 85.7292 140.694 89.9235 135.902C93.852 131.412 97.0711 125.737 97.2049 119.627C97.2654 116.848 96.5578 113.687 94.3232 111.834C91.6247 109.594 87.995 110.18 84.8657 110.998C76.8547 113.09 68.8876 115.381 60.9334 117.672C52.9774 119.964 45.0415 122.323 37.1258 124.747C36.145 125.047 35.1661 125.348 34.1853 125.651C33.5107 125.858 33.7985 126.921 34.4787 126.712L34.4805 126.71Z" fill="black"/>
<path d="M28.1101 95.9767C32.4163 97.2251 36.7225 98.4754 41.0286 99.7238C45.2193 100.939 49.4173 102.294 53.7491 102.915C57.8481 103.504 61.8903 103.24 65.8739 102.116C69.8574 100.992 73.3826 99.3296 77.005 97.6412C84.0719 94.347 92.0958 90.6348 100.081 92.4918C107.458 94.2058 111.894 101.056 118.607 104.083C125.321 107.11 132.824 107.013 139.324 104.059C140.14 103.689 140.93 103.267 141.698 102.805C142.303 102.441 141.751 101.489 141.143 101.856C134.994 105.555 127.233 106.173 120.519 103.687C117.073 102.411 114.219 100.2 111.412 97.8887C108.648 95.6119 105.836 93.3039 102.437 92.0482C94.9556 89.2856 86.7484 92.0133 79.8391 95.1279C72.5687 98.4057 65.2359 102.486 57.0049 102.133C52.6712 101.947 48.4659 100.738 44.3247 99.5368C40.0919 98.3104 35.8609 97.0821 31.6299 95.8539C30.5538 95.5422 29.4777 95.2288 28.3998 94.9171C27.7178 94.7191 27.4282 95.7806 28.1065 95.9785L28.1101 95.9767Z" fill="black"/>
</svg>
